<svg width="1217" height="194" fill="none" xmlns="http://www.w3.org/2000/svg"><path d="M7.635 182.57l-1.458.352.702 2.916 1.459-.351-.703-2.917zM1171.34 82.006l1.43-.457-.91-2.858-1.43.457.91 2.858zm-462.57 67.051l.367-1.454-.367 1.454zm-391.18-39.602l-.351-1.458.351 1.458zm239.46 1.304l.367-1.454-.367 1.454zM8.338 185.487l4.837-1.165-.702-2.917-4.838 1.165.703 2.917zm14.512-3.496l9.675-2.33-.702-2.917-9.675 2.331.702 2.916zm19.35-4.661l9.676-2.33-.703-2.917-9.675 2.331.703 2.916zm19.35-4.66l9.676-2.331-.703-2.916-9.675 2.33.703 2.917zm19.35-4.661l9.676-2.331-.702-2.916-9.676 2.33.703 2.917zm19.351-4.661l9.675-2.331-.702-2.916-9.675 2.33.702 2.917zm19.35-4.661l9.675-2.33-.702-2.917-9.675 2.33.702 2.917zm19.351-4.661l9.675-2.33-.703-2.917-9.675 2.331.703 2.916zm19.35-4.661l9.675-2.33-.703-2.917-9.675 2.331.703 2.916zm19.35-4.661l9.675-2.33-.702-2.917-9.675 2.331.702 2.916zm19.35-4.66l9.675-2.331-.702-2.916-9.675 2.33.702 2.917zm19.35-4.661l9.676-2.331-.703-2.916-9.675 2.33.702 2.917zm19.351-4.661l9.675-2.331-.703-2.916-9.675 2.33.703 2.917zm19.35-4.661l9.675-2.33-.703-2.917-9.675 2.33.703 2.917zm19.35-4.661l9.675-2.33-.702-2.917-9.675 2.331.702 2.916zm19.35-4.661l9.675-2.33-.702-2.917-9.675 2.331.702 2.916zm19.351-4.661l4.837-1.165-.702-2.916-4.838 1.165.703 2.916zm4.837-1.165c1.629-.392 3.258-.776 4.89-1.152l-.673-2.923c-1.641.378-3.281.764-4.919 1.159l.702 2.916zm14.7-3.306c3.28-.686 6.564-1.339 9.854-1.958l-.555-2.948a503.204 503.204 0 00-9.913 1.969l.614 2.937zm19.744-3.715a497.64 497.64 0 019.923-1.559l-.436-2.968a497.231 497.231 0 00-9.983 1.568l.496 2.959zm19.876-2.917a500.91 500.91 0 019.978-1.157l-.315-2.983c-3.349.354-6.696.742-10.039 1.164l.376 2.976zm19.977-2.113a498.81 498.81 0 0110.017-.754l-.195-2.994c-3.361.22-6.72.472-10.077.759l.255 2.989zm20.047-1.306a498.35 498.35 0 0110.039-.35l-.074-3c-3.367.084-6.734.201-10.099.353l.134 2.997zm20.083-.498c3.349-.016 6.697.003 10.045.055l.047-3a508.11 508.11 0 00-10.106-.055l.014 3zm20.087.312c3.346.12 6.691.272 10.035.46l.167-2.996a501.938 501.938 0 00-10.095-.462l-.107 2.998zm20.058 1.12c3.338.255 6.674.542 10.008.864l.288-2.986c-3.354-.324-6.71-.613-10.068-.869l-.228 2.992zm19.996 1.929c3.325.388 6.647.81 9.966 1.265l.408-2.972a502.897 502.897 0 00-10.025-1.273l-.349 2.98zm19.903 2.732c3.306.522 6.608 1.077 9.906 1.666l.527-2.953a503.777 503.777 0 00-9.965-1.676l-.468 2.963zm19.776 3.532c3.283.655 6.56 1.343 9.832 2.064l.646-2.929a496.322 496.322 0 00-9.891-2.077l-.587 2.942zm19.618 4.326c1.627.393 3.253.795 4.877 1.205l.734-2.909a494.25 494.25 0 00-4.906-1.212l-.705 2.916zm4.877 1.205l4.741 1.197.734-2.909-4.741-1.197-.734 2.909zm14.224 3.59l9.482 2.394.734-2.909-9.482-2.394-.734 2.909zm18.965 4.787l9.482 2.394.734-2.909-9.482-2.393-.734 2.908zm18.964 4.788l9.483 2.393.734-2.908-9.482-2.394-.735 2.909zm18.965 4.787l9.483 2.394.734-2.909-9.482-2.394-.735 2.909zm18.965 4.787l9.483 2.394.734-2.909-9.482-2.394-.735 2.909zm18.965 4.787l9.483 2.394.734-2.909-9.482-2.393-.735 2.908zm18.965 4.788l9.483 2.393.734-2.908-9.482-2.394-.735 2.909zm18.965 4.787l4.742 1.197.734-2.909-4.741-1.197-.735 2.909zm4.742 1.197c1.612.407 3.226.806 4.841 1.196l.705-2.916c-1.605-.388-3.21-.784-4.812-1.189l-.734 2.909zm14.555 3.444a504.58 504.58 0 009.756 2.054l.589-2.942a492.806 492.806 0 01-9.698-2.042l-.647 2.93zm19.552 3.914c3.273.587 6.55 1.142 9.831 1.664l.471-2.962a500.502 500.502 0 01-9.772-1.655l-.53 2.953zm19.693 3.133c3.294.457 6.59.881 9.89 1.273l.353-2.98c-3.28-.388-6.557-.81-9.83-1.264l-.413 2.971zm19.802 2.348c3.309.326 6.62.619 9.932.878l.235-2.99c-3.293-.259-6.584-.55-9.873-.873l-.294 2.985zm19.879 1.559c3.319.194 6.639.355 9.959.483l.116-2.998a496.03 496.03 0 01-9.9-.48l-.175 2.995zm19.926.767c3.324.062 6.647.091 9.971.087l-.004-3c-3.304.004-6.607-.025-9.911-.086l-.056 2.999zm19.941-.025a501.89 501.89 0 009.966-.31l-.123-2.997c-3.301.135-6.603.238-9.907.308l.064 2.999zm19.924-.818c3.317-.202 6.632-.438 9.946-.706l-.243-2.99c-3.293.267-6.589.5-9.886.702l.183 2.994zm19.875-1.609a499.34 499.34 0 009.91-1.101l-.361-2.978c-3.28.397-6.564.762-9.85 1.094l.301 2.985zm19.796-2.398a513.96 513.96 0 009.858-1.494l-.479-2.962a492.715 492.715 0 01-9.799 1.485l.42 2.971zm19.685-3.184a498.237 498.237 0 009.791-1.884l-.596-2.94a505.854 505.854 0 01-9.733 1.873l.538 2.951zm19.543-3.963a502.007 502.007 0 009.709-2.273l-.713-2.914a496.016 496.016 0 01-9.651 2.259l.655 2.928zm19.37-4.737c3.21-.854 6.413-1.739 9.61-2.657l-.828-2.883a502.589 502.589 0 01-9.553 2.64l.771 2.9zm19.165-5.504c1.588-.49 3.174-.988 4.758-1.495l-.914-2.857a528.11 528.11 0 01-4.729 1.486l.885 2.866zm4.758-1.495l4.686-1.498-.913-2.858-4.687 1.499.914 2.857zm14.06-4.495l9.373-2.997-.91-2.858-9.376 2.997.913 2.858zm18.743-5.994l9.38-2.997-.92-2.858-9.37 2.997.91 2.858zm18.75-5.994l9.38-2.997-.92-2.857-9.37 2.997.91 2.857zm18.75-5.994l9.37-2.997-.91-2.857-9.37 2.997.91 2.857zm18.75-5.994l9.37-2.997-.91-2.857-9.38 2.997.92 2.857zm18.74-5.993l9.38-2.997-.92-2.858-9.37 2.997.91 2.858zm18.75-5.994l9.38-2.997-.92-2.858-9.37 2.997.91 2.858zm18.75-5.994l9.37-2.997-.91-2.858-9.37 2.997.91 2.858zm18.75-5.994l9.37-2.997-.91-2.858-9.38 2.998.92 2.857zm18.74-5.994l4.69-1.498-.91-2.858-4.69 1.499.91 2.857zM17.868 122.505H8.832v-1.998c2.568-1.908 4.266-3.264 5.094-4.068.84-.816 1.26-1.578 1.26-2.286 0-.492-.192-.876-.576-1.152-.384-.276-.84-.414-1.368-.414-1.26 0-2.334.462-3.222 1.386l-1.458-1.692a5.289 5.289 0 012.07-1.458 6.738 6.738 0 012.556-.504c1.32 0 2.412.348 3.276 1.044.876.696 1.314 1.626 1.314 2.79 0 .984-.39 1.95-1.17 2.898-.768.936-1.98 2.004-3.636 3.204h4.896v2.25zm9.281-.702c-.768.612-1.698.918-2.79.918s-2.028-.306-2.808-.918a5.27 5.27 0 01-1.656-2.304c-.336-.912-.504-1.908-.504-2.988s.168-2.076.504-2.988a5.15 5.15 0 011.656-2.286c.78-.612 1.716-.918 2.808-.918 1.092 0 2.022.306 2.79.918a5.15 5.15 0 011.656 2.286c.348.912.522 1.908.522 2.988s-.174 2.076-.522 2.988a5.27 5.27 0 01-1.656 2.304zm-4.59-2.43c.384.72.984 1.08 1.8 1.08.816 0 1.41-.36 1.782-1.08.384-.72.576-1.674.576-2.862 0-1.188-.192-2.136-.576-2.844-.372-.72-.966-1.08-1.782-1.08-.816 0-1.416.36-1.8 1.08-.384.708-.576 1.656-.576 2.844s.192 2.142.576 2.862zm13.592 3.132h-2.556v-8.712l-1.998 2.034-1.458-1.53 3.78-3.798h2.232v12.006zm6.645.216c-1.356 0-2.502-.288-3.438-.864-.924-.576-1.386-1.398-1.386-2.466 0-.696.24-1.314.72-1.854.48-.552 1.098-.96 1.854-1.224-1.584-.552-2.376-1.494-2.376-2.826 0-1.044.456-1.83 1.368-2.358.924-.54 2.01-.81 3.258-.81a7.53 7.53 0 012.196.306 3.794 3.794 0 011.71 1.062c.48.492.72 1.092.72 1.8 0 1.32-.798 2.262-2.394 2.826.756.264 1.374.672 1.854 1.224.492.54.738 1.158.738 1.854 0 1.056-.468 1.878-1.404 2.466-.936.576-2.076.864-3.42.864zm0-7.416a3.857 3.857 0 001.368-.468c.432-.24.648-.558.648-.954 0-.42-.186-.75-.558-.99-.372-.252-.858-.378-1.458-.378s-1.092.126-1.476.378c-.372.24-.558.57-.558.99 0 .396.216.714.648.954.432.24.894.396 1.386.468zm0 5.22c.624 0 1.152-.132 1.584-.396.432-.276.648-.63.648-1.062 0-.444-.246-.804-.738-1.08a4.12 4.12 0 00-1.494-.522 4.286 4.286 0 00-1.512.522c-.48.276-.72.636-.72 1.08 0 .432.21.786.63 1.062.432.264.966.396 1.602.396z" fill="#fff"/><path d="M19.942 183.971c0 5.507-4.464 9.972-9.97 9.972-5.508 0-9.972-4.465-9.972-9.972S4.464 174 9.971 174s9.971 4.464 9.971 9.971zm-16.639 0a6.668 6.668 0 1013.336 0 6.668 6.668 0 00-13.336 0z" fill="#fff"/><g clip-path="url(#clip0)"><path d="M31.75 145.995c-.245-.143-6.058-3.448-12.575-.029-4.012 2.106-7.68.99-9.164.361v-1.925a1.402 1.402 0 10-2.804 0v30.849a1.401 1.401 0 102.804 0v-11.898c1.107.356 2.575.687 4.286.686 1.853 0 3.979-.386 6.182-1.541 5.1-2.681 9.661-.146 9.864-.028a1.404 1.404 0 002.104-1.215v-14.048c0-.498-.265-.961-.697-1.212z" fill="#fff"/></g><path d="M441.646 36.503h-9.036v-1.998c2.568-1.908 4.266-3.264 5.094-4.068.84-.816 1.26-1.578 1.26-2.286 0-.492-.192-.876-.576-1.152-.384-.276-.84-.414-1.368-.414-1.26 0-2.334.462-3.222 1.386l-1.458-1.692a5.289 5.289 0 012.07-1.458 6.738 6.738 0 012.556-.504c1.32 0 2.412.348 3.276 1.044.876.696 1.314 1.626 1.314 2.79 0 .984-.39 1.95-1.17 2.898-.768.936-1.98 2.004-3.636 3.204h4.896v2.25zm9.281-.702c-.768.612-1.698.918-2.79.918s-2.028-.306-2.808-.918a5.27 5.27 0 01-1.656-2.304c-.336-.912-.504-1.908-.504-2.988s.168-2.076.504-2.988a5.15 5.15 0 011.656-2.286c.78-.612 1.716-.918 2.808-.918 1.092 0 2.022.306 2.79.918a5.15 5.15 0 011.656 2.286c.348.912.522 1.908.522 2.988s-.174 2.076-.522 2.988a5.27 5.27 0 01-1.656 2.304zm-4.59-2.43c.384.72.984 1.08 1.8 1.08.816 0 1.41-.36 1.782-1.08.384-.72.576-1.674.576-2.862 0-1.188-.192-2.136-.576-2.844-.372-.72-.966-1.08-1.782-1.08-.816 0-1.416.36-1.8 1.08-.384.708-.576 1.656-.576 2.844s.192 2.142.576 2.862zm13.592 3.132h-2.556V27.79l-1.998 2.034-1.458-1.53 3.78-3.798h2.232v12.006zm5.924.198c-1.428 0-2.604-.414-3.528-1.242l1.134-1.962c.66.624 1.458.936 2.394.936.936 0 1.668-.33 2.196-.99.54-.672.81-1.47.81-2.394v-.27c-.312.432-.75.798-1.314 1.098-.564.3-1.158.45-1.782.45-1.14 0-2.112-.342-2.916-1.026-.792-.696-1.188-1.656-1.188-2.88 0-1.188.426-2.172 1.278-2.952.864-.78 1.974-1.17 3.33-1.17 1.164 0 2.142.288 2.934.864a4.684 4.684 0 011.71 2.232c.348.9.522 1.938.522 3.114 0 1.848-.498 3.342-1.494 4.482-.984 1.14-2.346 1.71-4.086 1.71zm.63-6.57c.96 0 1.746-.372 2.358-1.116-.06-.672-.288-1.248-.684-1.728-.396-.48-.984-.72-1.764-.72-.648 0-1.164.18-1.548.54-.384.36-.576.768-.576 1.224 0 .588.216 1.038.648 1.35.432.3.954.45 1.566.45z" fill="#fff"/><circle cx="436.749" cy="98.026" r="9.971" fill="#fff"/><g clip-path="url(#clip1)"><path d="M459.265 59.89c-.245-.143-6.057-3.448-12.575-.03-4.011 2.107-7.679.99-9.163.362v-1.925a1.402 1.402 0 10-2.804 0v30.849a1.401 1.401 0 102.804 0V77.248a13.97 13.97 0 004.285.686c1.854 0 3.98-.386 6.183-1.541 5.099-2.681 9.661-.146 9.864-.028a1.404 1.404 0 002.103-1.215V61.102c0-.498-.265-.96-.697-1.212z" fill="#fff"/></g><path d="M1175.78 17.807h-9.04v-1.998c2.57-1.908 4.27-3.264 5.1-4.068.84-.816 1.26-1.578 1.26-2.286 0-.492-.19-.876-.58-1.152-.38-.276-.84-.414-1.37-.414-1.26 0-2.33.462-3.22 1.386l-1.46-1.692a5.377 5.377 0 012.07-1.458 6.75 6.75 0 012.56-.504c1.32 0 2.41.348 3.28 1.044.87.696 1.31 1.626 1.31 2.79 0 .984-.39 1.95-1.17 2.898-.77.936-1.98 2.004-3.64 3.204h4.9v2.25zm9.28-.702c-.77.612-1.7.918-2.79.918s-2.03-.306-2.81-.918a5.272 5.272 0 01-1.65-2.304c-.34-.912-.51-1.908-.51-2.988s.17-2.076.51-2.988c.33-.912.89-1.674 1.65-2.286.78-.612 1.72-.918 2.81-.918s2.02.306 2.79.918a5.173 5.173 0 011.66 2.286c.35.912.52 1.908.52 2.988s-.17 2.076-.52 2.988c-.34.912-.89 1.68-1.66 2.304zm-4.59-2.43c.39.72.99 1.08 1.8 1.08.82 0 1.41-.36 1.78-1.08.39-.72.58-1.674.58-2.862 0-1.188-.19-2.136-.58-2.844-.37-.72-.96-1.08-1.78-1.08-.81 0-1.41.36-1.8 1.08-.38.708-.57 1.656-.57 2.844s.19 2.142.57 2.862zm17.27 3.132h-9.04v-1.998c2.57-1.908 4.27-3.264 5.09-4.068.84-.816 1.26-1.578 1.26-2.286 0-.492-.19-.876-.57-1.152-.39-.276-.84-.414-1.37-.414-1.26 0-2.33.462-3.22 1.386l-1.46-1.692a5.231 5.231 0 012.07-1.458 6.75 6.75 0 012.56-.504c1.32 0 2.41.348 3.27 1.044.88.696 1.32 1.626 1.32 2.79 0 .984-.39 1.95-1.17 2.898-.77.936-1.98 2.004-3.64 3.204h4.9v2.25zm7.12 0h-2.56V9.095l-2 2.034-1.46-1.53 3.78-3.798h2.24v12.006z" fill="#fff"/><circle cx="1170.88" cy="79.331" r="9.971" fill="#fff"/><g clip-path="url(#clip2)"><path d="M1193.4 41.194c-.24-.143-6.06-3.448-12.57-.03-4.01 2.107-7.68.99-9.17.362v-1.925c0-.774-.62-1.402-1.4-1.402-.77 0-1.4.628-1.4 1.402V70.45c0 .775.63 1.402 1.4 1.402.78 0 1.4-.627 1.4-1.402V58.552c1.11.356 2.58.687 4.29.686 1.85 0 3.98-.386 6.18-1.541 5.1-2.681 9.66-.146 9.87-.028.43.248.96.25 1.4.001.43-.251.7-.714.7-1.216V42.406c0-.498-.27-.96-.7-1.212z" fill="#fff"/></g><path d="M852.96 97.577h-9.036v-1.998c2.568-1.908 4.266-3.264 5.094-4.068.84-.816 1.26-1.578 1.26-2.286 0-.492-.192-.876-.576-1.152-.384-.276-.84-.414-1.368-.414-1.26 0-2.334.462-3.222 1.386l-1.458-1.692a5.289 5.289 0 012.07-1.458 6.738 6.738 0 012.556-.504c1.32 0 2.412.348 3.276 1.044.876.696 1.314 1.626 1.314 2.79 0 .984-.39 1.95-1.17 2.898-.768.936-1.98 2.004-3.636 3.204h4.896v2.25zm9.281-.702c-.768.612-1.698.918-2.79.918s-2.028-.306-2.808-.918a5.27 5.27 0 01-1.656-2.304c-.336-.912-.504-1.908-.504-2.988s.168-2.076.504-2.988a5.15 5.15 0 011.656-2.286c.78-.612 1.716-.918 2.808-.918 1.092 0 2.022.306 2.79.918a5.15 5.15 0 011.656 2.286c.348.912.522 1.908.522 2.988s-.174 2.076-.522 2.988a5.27 5.27 0 01-1.656 2.304zm-4.59-2.43c.384.72.984 1.08 1.8 1.08.816 0 1.41-.36 1.782-1.08.384-.72.576-1.674.576-2.862 0-1.188-.192-2.136-.576-2.844-.372-.72-.966-1.08-1.782-1.08-.816 0-1.416.36-1.8 1.08-.384.708-.576 1.656-.576 2.844s.192 2.142.576 2.862zm17.264 3.132h-9.036v-1.998c2.568-1.908 4.266-3.264 5.094-4.068.84-.816 1.26-1.578 1.26-2.286 0-.492-.192-.876-.576-1.152-.384-.276-.84-.414-1.368-.414-1.26 0-2.334.462-3.222 1.386l-1.458-1.692a5.289 5.289 0 012.07-1.458 6.738 6.738 0 012.556-.504c1.32 0 2.412.348 3.276 1.044.876.696 1.314 1.626 1.314 2.79 0 .984-.39 1.95-1.17 2.898-.768.936-1.98 2.004-3.636 3.204h4.896v2.25zm9.281-.702c-.768.612-1.698.918-2.79.918s-2.028-.306-2.808-.918a5.27 5.27 0 01-1.656-2.304c-.336-.912-.504-1.908-.504-2.988s.168-2.076.504-2.988a5.15 5.15 0 011.656-2.286c.78-.612 1.716-.918 2.808-.918 1.092 0 2.022.306 2.79.918a5.15 5.15 0 011.656 2.286c.348.912.522 1.908.522 2.988s-.174 2.076-.522 2.988a5.27 5.27 0 01-1.656 2.304zm-4.59-2.43c.384.72.984 1.08 1.8 1.08.816 0 1.41-.36 1.782-1.08.384-.72.576-1.674.576-2.862 0-1.188-.192-2.136-.576-2.844-.372-.72-.966-1.08-1.782-1.08-.816 0-1.416.36-1.8 1.08-.384.708-.576 1.656-.576 2.844s.192 2.142.576 2.862z" fill="#fff"/><circle cx="848.063" cy="159.101" r="9.971" fill="#fff"/><g clip-path="url(#clip3)"><path d="M870.58 120.964c-.245-.143-6.058-3.448-12.575-.029-4.012 2.106-7.68.99-9.163.362v-1.926a1.402 1.402 0 10-2.805 0v30.849a1.401 1.401 0 102.804 0v-11.898c1.107.356 2.575.687 4.286.686 1.853 0 3.979-.386 6.182-1.541 5.1-2.681 9.661-.146 9.865-.028a1.403 1.403 0 002.103-1.214v-14.049c0-.498-.265-.961-.697-1.212z" fill="#fff"/></g><defs><clipPath id="clip0"><path fill="#fff" transform="translate(3 143)" d="M0 0h33.653v33.653H0z"/></clipPath><clipPath id="clip1"><path fill="#fff" transform="translate(430.516 56.895)" d="M0 0h33.653v33.653H0z"/></clipPath><clipPath id="clip2"><path fill="#fff" transform="translate(1164.65 38.199)" d="M0 0h33.653v33.653H0z"/></clipPath><clipPath id="clip3"><path fill="#fff" transform="translate(841.83 117.969)" d="M0 0h33.653v33.653H0z"/></clipPath></defs></svg>