<svg width="15" height="17" fill="none" xmlns="http://www.w3.org/2000/svg"><g clip-path="url(#clip0)"><path d="M14.23 2.778H.77c-.424 0-.77.384-.77.854v9.402c0 .47.346.855.77.855h13.46c.424 0 .77-.385.77-.855V3.632c0-.47-.346-.854-.77-.854zm-.288.64l-6 5a.698.698 0 01-.442.148.698.698 0 01-.443-.147l-6-5h12.885zm-3.205 5.33l3.27 4.488.01.012H.983l.01-.012 3.27-4.487a.345.345 0 00-.043-.451.27.27 0 00-.406.047L.577 12.79V3.82l6.135 5.113c.23.19.51.274.788.275.277 0 .558-.084.788-.275l6.135-5.113v8.97l-3.237-4.444a.27.27 0 00-.406-.047.345.345 0 00-.043.45z" fill="#443E3E"/></g><defs><clipPath id="clip0"><path fill="#fff" d="M0 0h15v16.667H0z"/></clipPath></defs></svg>