<svg width="15" height="17" fill="none" xmlns="http://www.w3.org/2000/svg"><g clip-path="url(#clip0)"><path d="M3.058 11.079c1.479 1.965 3.26 3.512 5.293 4.607.774.407 1.809.89 2.962.974.071.003.14.007.211.007.774 0 1.396-.297 1.902-.909a.073.073 0 00.013-.017c.18-.242.385-.46.6-.69.146-.156.295-.318.438-.484.662-.767.662-1.74-.006-2.483l-1.868-2.076c-.317-.366-.697-.56-1.094-.56-.398 0-.78.194-1.107.557L9.29 11.24c-.102-.065-.208-.124-.307-.18a3.755 3.755 0 01-.342-.207C7.627 10.14 6.706 9.207 5.827 8.01c-.445-.625-.743-1.15-.951-1.686.292-.293.565-.6.83-.901.093-.107.19-.214.286-.321.335-.373.516-.805.516-1.243 0-.439-.178-.87-.516-1.244l-.927-1.029c-.108-.12-.211-.238-.317-.359-.205-.235-.42-.477-.63-.694C3.797.183 3.42 0 3.022 0 2.63 0 2.25.183 1.917.535L.754 1.827a2.788 2.788 0 00-.711 1.699c-.06.825.077 1.703.432 2.763.544 1.64 1.364 3.163 2.583 4.79zM.8 3.599a1.92 1.92 0 01.494-1.175L2.451 1.14c.18-.194.38-.294.572-.294.19 0 .383.1.56.3.208.215.404.44.615.677.106.121.215.242.323.367l.927 1.029c.192.214.292.431.292.645 0 .215-.1.432-.292.646-.097.107-.193.218-.29.325-.288.325-.559.632-.857.925l-.016.018c-.258.286-.217.56-.155.766l.01.028c.238.639.571 1.247 1.09 1.972.933 1.278 1.915 2.269 2.996 3.032.134.097.277.173.41.249.125.069.24.135.343.207.012.007.021.014.034.02a.6.6 0 00.301.087c.249 0 .41-.176.463-.235l1.163-1.291c.18-.2.376-.308.569-.308.236 0 .428.163.55.308l1.874 2.079c.373.414.37.863-.01 1.302-.13.155-.267.304-.413.459-.217.235-.444.477-.65.75-.357.428-.783.628-1.333.628-.053 0-.108-.003-.161-.007-1.02-.072-1.968-.515-2.68-.891-1.933-1.04-3.63-2.514-5.038-4.386-1.16-1.55-1.94-2.994-2.455-4.541C.873 5.056.75 4.293.8 3.599z" fill="#443E3E"/></g><defs><clipPath id="clip0"><path fill="#fff" d="M0 0h15v16.667H0z"/></clipPath></defs></svg>